# xmcd CD database file generated by Grip 2.96
# 
# Track frame offsets:
#       150
#       12817
#       21865
#       31900
#       41297
#       51145
#       61390
#       71707
#       82695
#       92502
#       103067
#       112907
# 
# Disc length: 1651 seconds
# 
# Revision: 0
# Processed by: cddbd v1.4PL0 Copyright (c) Steve Scherf et al.
# Submitted via: Grip 2.96
# 
DISCID=8606710c
DTITLE=Bob Wills - The Best of Bob Wills
DYEAR=1900
DGENRE=
TTITLE0=San Antonio Rose
TTITLE1=Eight'r from Decatur
TTITLE2=Deep in the Heart of Texas
TTITLE3=Silver Bells (That Ring in the Night)
TTITLE4=Across the Alley from the Alamo
TTITLE5=Cimarron
TTITLE6=South of the Border
TTITLE7=Milk Cow Blues
TTITLE8=My Adobe Hacienda
TTITLE9=Southwestern Waltz
TTITLE10=A Big Ball in Cowtown (We'll Dance Around)
TTITLE11=Pan Handle Rag
EXTD=
EXTT0=
EXTT1=
EXTT2=
EXTT3=
EXTT4=
EXTT5=
EXTT6=
EXTT7=
EXTT8=
EXTT9=
EXTT10=
EXTT11=
PLAYORDER=
